<?xml version="1.0" encoding="UTF-8" standalone="no"?>
<!-- Created with Inkscape (http://www.inkscape.org/) -->
<svg
   xmlns:dc="http://purl.org/dc/elements/1.1/"
   xmlns:cc="http://web.resource.org/cc/"
   xmlns:rdf="http://www.w3.org/1999/02/22-rdf-syntax-ns#"
   xmlns:svg="http://www.w3.org/2000/svg"
   xmlns="http://www.w3.org/2000/svg"
   xmlns:sodipodi="http://sodipodi.sourceforge.net/DTD/sodipodi-0.dtd"
   xmlns:inkscape="http://www.inkscape.org/namespaces/inkscape"
   width="32"
   height="32"
   id="svg2"
   sodipodi:version="0.32"
   inkscape:version="0.45.1"
   version="1.0"
   inkscape:export-filename="c:\src\sil\solid\trunk\ArtWork\cog.png"
   inkscape:export-xdpi="90"
   inkscape:export-ydpi="90"
   sodipodi:docbase="C:\src\sil\solid\trunk\ArtWork"
   sodipodi:docname="cog.svg"
   inkscape:output_extension="org.inkscape.output.svg.inkscape">
  <defs
     id="defs4" />
  <sodipodi:namedview
     id="base"
     pagecolor="#0000ff"
     bordercolor="#666666"
     borderopacity="1.0"
     gridtolerance="10000"
     guidetolerance="10"
     objecttolerance="10"
     inkscape:pageopacity="0"
     inkscape:pageshadow="2"
     inkscape:zoom="8"
     inkscape:cx="22.015199"
     inkscape:cy="11.903846"
     inkscape:document-units="px"
     inkscape:current-layer="layer2"
     width="32px"
     height="32px"
     showborder="true"
     inkscape:showpageshadow="false"
     inkscape:window-width="872"
     inkscape:window-height="646"
     inkscape:window-x="1519"
     inkscape:window-y="144" />
  <metadata
     id="metadata7">
    <rdf:RDF>
      <cc:Work
         rdf:about="">
        <dc:format>image/svg+xml</dc:format>
        <dc:type
           rdf:resource="http://purl.org/dc/dcmitype/StillImage" />
      </cc:Work>
    </rdf:RDF>
  </metadata>
  <g
     inkscape:groupmode="layer"
     id="layer2"
     inkscape:label="back"
     style="opacity:1;display:inline">
    <rect
       style="fill:#2632a6;fill-opacity:1;stroke:#ffffff;stroke-width:1;stroke-miterlimit:4;stroke-dasharray:none;stroke-opacity:1"
       id="rect3136"
       width="56.375"
       height="49.375"
       x="-9"
       y="-5.25" />
  </g>
  <g
     inkscape:label="Layer 1"
     inkscape:groupmode="layer"
     id="layer1"
     style="display:inline">
    <path
       style="fill:#ffffff;fill-opacity:1;stroke:#ffffff;stroke-width:1;stroke-miterlimit:4;stroke-dasharray:none;stroke-opacity:1"
       d="M 18.71875,3.71875 C 17.135515,3.8283978 18.458202,6.4124395 15.8125,6.53125 C 12.788841,6.6670335 14.646211,3.1240001 11.8125,4.1875 C 8.9787891,5.2509995 12.71013,6.7066369 10.34375,8.59375 C 7.97737,10.480863 7.3861613,6.5052472 5.71875,9.03125 C 4.0513391,11.557253 7.9302242,10.551121 7.125,13.46875 C 6.3197757,16.38638 3.4892165,13.538842 3.625,16.5625 C 3.7607833,19.586159 6.3115004,16.51004 7.375,19.34375 C 8.4384998,22.177461 4.4878866,21.50862 6.375,23.875 C 8.262113,26.24138 8.5052473,22.23884 11.03125,23.90625 C 13.557253,25.573661 9.95737,27.382275 12.875,28.1875 C 15.79263,28.992724 13.663841,25.604534 16.6875,25.46875 C 19.711159,25.332967 17.853788,28.875999 20.6875,27.8125 C 23.521211,26.749 19.78987,25.293363 22.15625,23.40625 C 24.52263,21.519137 25.113839,25.494753 26.78125,22.96875 C 28.448661,20.442747 24.569777,21.448879 25.375,18.53125 C 26.180224,15.61362 29.010783,18.461159 28.875,15.4375 C 28.739217,12.413841 26.188499,15.489961 25.125,12.65625 C 24.0615,9.8225388 28.012112,10.49138 26.125,8.125 C 24.237887,5.7586202 23.994754,9.7611612 21.46875,8.09375 C 18.942747,6.4263389 22.54263,4.6177244 19.625,3.8125 C 19.260296,3.711847 18.944926,3.703086 18.71875,3.71875 z M 16.25,9.375 C 19.907,9.375 22.875,12.343 22.875,16 C 22.875,19.657 19.907,22.625 16.25,22.625 C 12.593,22.625 9.625,19.657 9.625,16 C 9.625,12.343 12.593,9.375 16.25,9.375 z "
       id="path2160"
       inkscape:export-xdpi="71.974098"
       inkscape:export-ydpi="71.974098"
       inkscape:export-filename="C:\src\sil\solid\trunk\ArtWork\cog.png" />
  </g>
</svg>
